<svg width="1440" height="751" viewBox="0 0 1440 751" fill="none" xmlns="http://www.w3.org/2000/svg">
<path d="M1440 0H0V751H1440V0Z" fill="#F8F5F1"/>
<path d="M1010.02 -1237.49C970.24 -1184.86 859.625 -1037.96 771.335 -921.711C683.044 -805.463 559.374 -677.934 480.278 -539.999C401.183 -402.063 356.074 -222.239 296.76 -94.0981C237.446 34.0425 215.561 95.8207 124.393 228.845C33.2255 361.869 -160.06 571.072 -250.247 704.047C-340.435 837.023 -388.984 972.922 -416.731 1026.7L989.271 1774.97L2416.02 -489.214L1010.02 -1237.49Z" fill="url(#paint0_linear_4930_6104)"/>
<path d="M1139.52 -1166.93C1116.6 -1105.64 1068.68 -904.674 1002 -799.196C935.327 -693.717 813.643 -625.961 739.463 -534.054C665.284 -442.147 618.123 -374.403 556.925 -247.754C495.728 -121.106 436.49 98.0066 372.277 225.837C308.063 353.667 249.755 420.047 171.647 519.227C93.538 618.407 -20.2263 724.893 -96.3745 820.915C-172.522 916.936 -253.764 1049.61 -285.242 1095.35L991.264 1774.97L2416.02 -487.308L1139.52 -1166.93Z" fill="url(#paint1_linear_4930_6104)"/>
<path d="M1267.67 -1098.16C1236.75 -1057.55 1134.64 -963.812 1082.1 -854.5C1029.55 -745.188 1009.94 -554.847 952.408 -442.288C894.88 -329.729 813.083 -250.875 736.933 -179.144C660.782 -107.413 543.924 -85.3129 495.506 -11.9019C447.089 61.5092 484.543 154.02 446.428 261.323C408.312 368.625 351.983 534.585 266.813 631.913C181.643 729.241 5.94448 756.691 -64.5925 845.29C-135.129 933.888 -141.106 1110.47 -156.409 1163.5L991.939 1774.97L2416.02 -486.691L1267.67 -1098.16Z" fill="url(#paint2_linear_4930_6104)"/>
<path d="M1396.4 -1028.31C1358.98 -976.574 1240.6 -853.042 1171.9 -717.903C1103.2 -582.765 1054.66 -358.445 984.225 -217.477C913.792 -76.5078 855.526 8.67566 749.301 127.91C643.077 247.144 450.966 374.7 346.88 497.929C242.793 621.158 186.927 744.962 124.784 867.283C62.6408 989.605 -0.852294 1171.1 -25.9794 1231.86L993.646 1774.97L2416.02 -485.194L1396.4 -1028.31Z" fill="url(#paint3_linear_4930_6104)"/>
<path d="M1524.95 -958.432C1495.36 -899.476 1412.91 -712.598 1347.41 -604.696C1281.92 -496.795 1204.28 -424.951 1131.99 -311.023C1059.7 -197.095 1001.71 -33.301 913.652 78.8712C825.597 191.043 660.298 269.012 603.66 362.01C547.023 455.008 623.492 537.149 573.825 636.86C524.159 736.57 383.883 849.728 305.661 960.275C227.439 1070.82 138.021 1243.5 104.493 1300.14L995.568 1774.97L2416.02 -483.602L1524.95 -958.432Z" fill="url(#paint4_linear_4930_6104)"/>
<path d="M1653.36 -888.393C1624.39 -846.027 1539.66 -745.537 1479.5 -634.199C1419.34 -522.861 1379.5 -345.259 1292.38 -220.365C1205.26 -95.472 1037.47 2.028 956.765 115.161C876.06 228.294 872.173 352.696 808.149 458.432C744.125 564.168 614.957 654.815 572.62 749.576C530.283 844.336 610.361 923.86 554.129 1026.99C497.897 1130.13 288.379 1311.48 235.229 1368.37L997.888 1774.97L2416.02 -481.793L1653.36 -888.393Z" fill="url(#paint5_linear_4930_6104)"/>
<path d="M1781.32 -818.752C1748.93 -749.98 1659.26 -501.555 1586.94 -406.119C1514.63 -310.683 1413.52 -328.668 1347.43 -246.138C1281.33 -163.608 1244.76 -29.8786 1190.36 89.0638C1135.96 208.006 1097.67 348.027 1021.01 467.516C944.348 587.005 809.506 706.105 730.384 806C651.261 905.894 607.117 961.812 546.275 1066.88C485.433 1171.96 395.487 1374.84 365.33 1436.44L1000.03 1774.97L2416.02 -480.218L1781.32 -818.752Z" fill="url(#paint6_linear_4930_6104)"/>
<path d="M1908.93 -749.326C1863.43 -704.15 1724.48 -609.824 1635.92 -478.271C1547.37 -346.718 1436.54 -94.4191 1377.58 39.9942C1318.61 174.407 1342.67 199.831 1282.15 328.209C1221.64 456.586 1089.56 680.496 1014.5 810.26C939.441 940.023 918.358 991.103 831.785 1106.79C745.212 1222.48 551.185 1438.11 495.065 1504.38L1002.16 1774.97L2416.02 -478.731L1908.93 -749.326Z" fill="url(#paint7_linear_4930_6104)"/>
<path d="M2036.56 -678.946C1980.33 -598.278 1805.9 -374.243 1699.22 -194.938C1592.54 -15.6336 1521.5 202.491 1396.47 396.881C1271.43 591.272 1077.36 775.498 949.015 971.405C820.67 1167.31 680.165 1472.17 626.395 1572.32L1005.86 1774.97L2416.02 -476.298L2036.56 -678.946Z" fill="url(#paint8_linear_4930_6104)"/>
<path d="M2163.58 -609.023C2109.18 -531.314 1919.9 -298.498 1837.21 -142.769C1754.51 12.9607 1751.64 188.039 1667.42 325.353C1583.2 462.668 1434.8 550.596 1331.88 681.118C1228.97 811.639 1145.75 948.658 1049.93 1108.48C954.117 1268.31 805.803 1551.47 756.977 1640.06L1009.42 1774.97L2416.02 -474.115L2163.58 -609.023Z" fill="url(#paint9_linear_4930_6104)"/>
<path d="M2289.97 -540.2C2245.85 -487.011 2076.11 -317.521 2025.29 -221.063C1974.47 -124.606 2041.62 -56.4895 1985.04 38.5465C1928.46 133.583 1741.55 261.448 1685.81 349.153C1630.07 436.859 1716.45 475.2 1650.59 564.779C1584.72 654.357 1354.58 770.54 1290.61 886.625C1226.65 1002.71 1311.06 1190.29 1266.81 1261.29C1222.55 1332.29 1088.63 1238.25 1025.09 1312.63C961.555 1387.02 908.844 1641.75 885.594 1707.58L1011.65 1774.97L2416.02 -472.805L2289.97 -540.2Z" fill="url(#paint10_linear_4930_6104)"/>
<defs>
<linearGradient id="paint0_linear_4930_6104" x1="1089.18" y1="-1195.36" x2="-539.14" y2="949.258" gradientUnits="userSpaceOnUse">
<stop stop-color="#F8F4F1"/>
</linearGradient>
<linearGradient id="paint1_linear_4930_6104" x1="1256.53" y1="-1104.63" x2="-414.996" y2="995.181" gradientUnits="userSpaceOnUse">
<stop stop-color="#F8F1F1"/>
<stop offset="0.0909091" stop-color="#F8F1F2"/>
</linearGradient>
<linearGradient id="paint2_linear_4930_6104" x1="1308.39" y1="-1076.48" x2="-378.641" y2="1006.35" gradientUnits="userSpaceOnUse">
<stop stop-color="#F8F1F5"/>
<stop offset="0.181818" stop-color="#F8F1F6"/>
</linearGradient>
<linearGradient id="paint3_linear_4930_6104" x1="1429.99" y1="-1010.41" x2="-298.242" y2="1024.7" gradientUnits="userSpaceOnUse">
<stop stop-color="#F8F1F8"/>
<stop offset="0.272727" stop-color="#F7F1F8"/>
</linearGradient>
<linearGradient id="paint4_linear_4930_6104" x1="1552.81" y1="-943.587" x2="-225.273" y2="1027.83" gradientUnits="userSpaceOnUse">
<stop stop-color="#F4F1F8"/>
<stop offset="0.363636" stop-color="#F3F1F8"/>
</linearGradient>
<linearGradient id="paint5_linear_4930_6104" x1="1684.58" y1="-871.753" x2="-158.206" y2="1004.42" gradientUnits="userSpaceOnUse">
<stop stop-color="#F1F2F8"/>
<stop offset="0.454545" stop-color="#F1F3F8"/>
</linearGradient>
<linearGradient id="paint6_linear_4930_6104" x1="1792.88" y1="-812.588" x2="-112.602" y2="951.82" gradientUnits="userSpaceOnUse">
<stop stop-color="#F1F6F8"/>
<stop offset="0.545455" stop-color="#F1F7F8"/>
</linearGradient>
<linearGradient id="paint7_linear_4930_6104" x1="1889.86" y1="-759.5" x2="-77.2751" y2="863.145" gradientUnits="userSpaceOnUse">
<stop stop-color="#F1F8F6"/>
<stop offset="0.636364" stop-color="#F1F8F5"/>
</linearGradient>
<linearGradient id="paint8_linear_4930_6104" x1="2037.93" y1="-678.21" x2="-8.99299" y2="592.746" gradientUnits="userSpaceOnUse">
<stop stop-color="#F1F8F2"/>
<stop offset="0.727273" stop-color="#F1F8F1"/>
</linearGradient>
<linearGradient id="paint9_linear_4930_6104" x1="2160.3" y1="-610.778" x2="164.062" y2="149.441" gradientUnits="userSpaceOnUse">
<stop stop-color="#F3F8F1"/>
<stop offset="0.818182" stop-color="#F4F8F1"/>
</linearGradient>
<linearGradient id="paint10_linear_4930_6104" x1="2228.97" y1="-572.813" x2="427.532" y2="-211.332" gradientUnits="userSpaceOnUse">
<stop stop-color="#F7F8F1"/>
<stop offset="0.909091" stop-color="#F8F8F1"/>
</linearGradient>
</defs>
</svg>
