<svg width="319" height="275" viewBox="0 0 319 275" fill="none" xmlns="http://www.w3.org/2000/svg">
<g clip-path="url(#clip0_1393_6138)">
<path d="M44.7521 196.018C68.5401 196.018 87.8241 176.75 87.8241 152.98C87.8241 129.211 68.5401 109.942 44.7521 109.942C20.9641 109.942 1.68018 129.211 1.68018 152.98C1.68018 176.75 20.9641 196.018 44.7521 196.018Z" fill="#67AA92"/>
<path d="M44.8702 152.98H44.9887L47.1188 275.001H42.6221L44.8702 152.98Z" fill="black"/>
<path d="M137.227 217.393C154.578 217.393 168.643 203.339 168.643 186.002C168.643 168.665 154.578 154.611 137.227 154.611C119.877 154.611 105.812 168.665 105.812 186.002C105.812 203.339 119.877 217.393 137.227 217.393Z" fill="#67AA92"/>
<path d="M137.313 186.002H137.4L138.953 275H135.673L137.313 186.002Z" fill="black"/>
<path d="M97.6616 142.855C137.141 142.855 169.145 110.876 169.145 71.4276C169.145 31.9792 137.141 0 97.6616 0C58.1821 0 26.1777 31.9792 26.1777 71.4276C26.1777 110.876 58.1821 142.855 97.6616 142.855Z" fill="#67AA92"/>
<path opacity="0.1" d="M150.443 23.7197C157.111 39.3047 158.015 56.751 152.995 72.941C147.974 89.1311 137.356 103.01 123.038 112.097C108.719 121.185 91.6331 124.889 74.8329 122.548C58.0328 120.206 42.6132 111.972 31.3296 99.3166C35.4028 108.838 41.4991 117.361 49.1961 124.295C56.8931 131.229 66.0068 136.408 75.9058 139.473C85.8047 142.538 96.2522 143.416 106.524 142.046C116.797 140.676 126.648 137.091 135.396 131.539C144.144 125.987 151.579 118.601 157.186 109.893C162.794 101.184 166.44 91.3619 167.871 81.106C169.302 70.8501 168.485 60.4058 165.476 50.4969C162.466 40.5879 157.337 31.4512 150.443 23.7197Z" fill="black"/>
<path d="M97.465 71.4277H97.2684L93.7334 273.937H101.196L97.465 71.4277Z" fill="#3F3D56"/>
<path d="M262.976 271.004H259.169L257.358 256.332H262.976L262.976 271.004Z" fill="#FFB6B6"/>
<path d="M263.946 274.691L251.671 274.691V274.536C251.671 273.269 252.175 272.055 253.071 271.16C253.967 270.265 255.182 269.762 256.449 269.762H256.449L263.946 269.762L263.946 274.691Z" fill="#2F2E41"/>
<path d="M280.628 271.004H276.821L275.01 256.332H280.629L280.628 271.004Z" fill="#FFB6B6"/>
<path d="M281.599 274.691L269.324 274.691V274.536C269.324 273.269 269.828 272.055 270.724 271.16C271.62 270.265 272.835 269.762 274.102 269.762H274.102L281.599 269.762L281.599 274.691Z" fill="#2F2E41"/>
<path d="M216.727 271.004H220.534L221.241 256.253L216.727 256.332L216.727 271.004Z" fill="#FFB6B6"/>
<path d="M215.756 269.762L223.253 269.762H223.254C224.521 269.762 225.736 270.265 226.632 271.16C227.528 272.055 228.031 273.269 228.031 274.535V274.691L215.757 274.691L215.756 269.762Z" fill="#2F2E41"/>
<path d="M201.338 271.004H205.145L205.899 256.253L201.337 256.332L201.338 271.004Z" fill="#FFB6B6"/>
<path d="M200.367 269.762L207.864 269.762H207.864C209.131 269.762 210.347 270.265 211.243 271.16C212.139 272.055 212.642 273.269 212.642 274.535V274.691L200.367 274.691L200.367 269.762Z" fill="#2F2E41"/>
<path d="M234.294 208.842C234.151 208.474 234.091 208.079 234.118 207.685C234.145 207.291 234.257 206.908 234.448 206.563C234.639 206.217 234.903 205.917 235.222 205.685C235.542 205.453 235.908 205.293 236.296 205.217L249.293 184.339L253.685 188.238L239.528 207.535C239.612 208.194 239.451 208.861 239.076 209.41C238.701 209.958 238.137 210.35 237.492 210.511C236.847 210.672 236.165 210.591 235.576 210.284C234.986 209.976 234.53 209.463 234.294 208.842Z" fill="#FFB6B6"/>
<path d="M293.696 216.569C293.335 216.41 293.013 216.173 292.753 215.876C292.493 215.579 292.302 215.228 292.192 214.849C292.083 214.47 292.058 214.071 292.119 213.681C292.18 213.291 292.326 212.92 292.547 212.592L286.962 188.646L292.828 188.3L296.473 211.947C296.999 212.354 297.357 212.939 297.48 213.592C297.603 214.245 297.481 214.921 297.139 215.491C296.797 216.06 296.258 216.485 295.623 216.684C294.988 216.882 294.303 216.842 293.696 216.569Z" fill="#FFB6B6"/>
<path d="M238.421 207.811C238.406 207.371 238.294 206.939 238.094 206.546C237.893 206.153 237.609 205.809 237.262 205.538C236.914 205.266 236.511 205.075 236.081 204.976C235.651 204.877 235.204 204.874 234.773 204.966L229.215 195.801L226.826 200.832L232.47 208.764C232.673 209.478 233.131 210.093 233.758 210.492C234.384 210.891 235.135 211.046 235.869 210.929C236.602 210.811 237.267 210.429 237.738 209.855C238.208 209.28 238.451 208.553 238.421 207.811Z" fill="#FFB6B6"/>
<path d="M191.975 217.398C192.234 217.042 192.412 216.633 192.496 216.2C192.58 215.767 192.568 215.321 192.461 214.893C192.354 214.466 192.155 214.067 191.876 213.725C191.598 213.382 191.248 213.105 190.851 212.913L192.113 202.271L187.132 204.768L186.698 214.491C186.418 215.179 186.401 215.945 186.649 216.645C186.897 217.345 187.394 217.929 188.044 218.287C188.695 218.646 189.454 218.753 190.179 218.589C190.903 218.425 191.542 218.002 191.975 217.398Z" fill="#FFB6B6"/>
<path d="M259.958 206.617L258.343 209.894L257.072 265.571L265.378 266.179L273.173 225.345L275.052 265.571L281.883 265.637L289.272 210.776L259.958 206.617Z" fill="#2F2E41"/>
<path d="M218.96 206.617L221.655 208.213C221.655 208.213 223.846 209.606 223.109 219.297C222.373 228.988 221.492 267.813 221.492 267.813H216.714L208.975 221.434L206.151 268.316L201.121 268.064C201.121 268.064 190.845 214.689 195.291 208.897L218.96 206.617Z" fill="#2F2E41"/>
<path d="M259.367 166.521L268.441 163.495L279.582 163.658L287.162 166.682L289.272 210.777C289.272 210.777 272.686 220.705 258.343 209.895L259.367 166.521Z" fill="#E4E4E4"/>
<path d="M259.367 166.132C259.367 166.132 255.788 165.713 253.793 171.65C251.797 177.587 246.521 185.618 246.521 185.618L252.292 191.026L263.836 175.029L259.367 166.132Z" fill="#E4E4E4"/>
<path d="M284.347 167.515L287.162 166.682C287.162 166.682 293.54 167.531 293.794 174.386C294.049 181.242 295.254 191.971 295.254 191.971L288.75 193.266L284.347 167.515Z" fill="#E4E4E4"/>
<path d="M193.664 172.323C193.664 172.323 206.774 168.112 217.351 172.038L216.485 192.424L223.009 208.327C223.009 208.327 202.267 216.366 195.355 209.61L197.371 193.681L193.664 172.323Z" fill="#E6C0C7"/>
<path d="M213.827 174.432L216.574 172.038C216.574 172.038 218.406 172.016 219.983 174.833C221.56 177.651 224.417 186.744 224.417 186.744L233.564 202.225L229.54 204.989L215.033 184.717L213.827 174.432Z" fill="#E6C0C7"/>
<path d="M194.151 173.328L194.338 172.051C194.338 172.051 189.23 172.428 188.798 177.346C188.366 182.264 186.786 210.015 186.786 210.015L191.839 211.02L196.865 182.538L194.151 173.328Z" fill="#E6C0C7"/>
<path d="M274.737 159.433C279.419 159.433 283.215 155.64 283.215 150.962C283.215 146.284 279.419 142.491 274.737 142.491C270.055 142.491 266.26 146.284 266.26 150.962C266.26 155.64 270.055 159.433 274.737 159.433Z" fill="#FFB6B6"/>
<path d="M211.859 164.955L196.534 167.97C196.219 168.032 195.892 167.966 195.625 167.787C195.358 167.609 195.173 167.331 195.111 167.016L193.81 160.416C193.581 159.255 193.584 158.059 193.817 156.899C194.05 155.738 194.51 154.635 195.17 153.652C196.503 151.667 198.571 150.292 200.918 149.83C203.266 149.368 205.701 149.857 207.688 151.189C209.675 152.521 211.05 154.587 211.513 156.933L212.813 163.533C212.875 163.848 212.809 164.175 212.63 164.441C212.451 164.708 212.174 164.893 211.859 164.955Z" fill="#2F2E41"/>
<path d="M204.707 166.075C208.36 166.075 211.321 163.116 211.321 159.466C211.321 155.816 208.36 152.857 204.707 152.857C201.054 152.857 198.093 155.816 198.093 159.466C198.093 163.116 201.054 166.075 204.707 166.075Z" fill="#FFB6B6"/>
<path d="M213.737 157.18L204.366 159.024L204.005 157.699L203.79 159.138L202.347 159.422L201.631 156.795L201.204 159.646L198.412 160.196L198.386 160.064C198.023 158.208 198.41 156.285 199.465 154.715C200.519 153.145 202.153 152.057 204.009 151.69L205.33 151.43C207.187 151.067 209.112 151.454 210.683 152.508C212.254 153.561 213.343 155.194 213.711 157.048L213.737 157.18Z" fill="#2F2E41"/>
<path d="M205.937 167.399C205.867 167.413 205.795 167.421 205.723 167.422L198.623 167.563L196.39 156.231L203.944 154.745L203.799 155C201.795 158.544 204.724 163.074 206.649 165.46C206.79 165.634 206.879 165.845 206.906 166.068C206.933 166.291 206.896 166.518 206.8 166.721C206.72 166.894 206.601 167.046 206.451 167.164C206.301 167.282 206.125 167.363 205.937 167.399Z" fill="#2F2E41"/>
<path d="M266.488 143.326C267.524 143.007 268.644 143.165 269.702 143.401L269.601 143.658C272.127 142.195 275.134 141.386 278 141.946C280.866 142.507 283.507 144.617 284.2 147.451C284.452 148.584 284.468 149.756 284.246 150.895C283.943 152.568 283.29 154.159 282.33 155.562C281.37 156.966 280.124 158.152 278.674 159.041C278.311 159.261 277.751 159.418 277.537 159.052C277.293 158.636 277.843 158.214 278.007 157.761C278.186 157.265 277.86 156.715 277.436 156.402C277.012 156.088 276.494 155.925 276.051 155.64C275.608 155.32 275.237 154.912 274.961 154.441C274.685 153.97 274.51 153.447 274.447 152.905C274.328 151.822 274.361 150.727 274.546 149.653C272.843 150.276 271.05 150.62 269.236 150.673C268.594 150.732 267.948 150.63 267.355 150.376C266.594 149.988 266.135 149.201 265.718 148.456C265.543 148.144 265.369 147.832 265.194 147.52C264.817 146.961 264.589 146.316 264.53 145.645C264.531 144.562 265.452 143.645 266.488 143.326Z" fill="#2F2E41"/>
</g>
<defs>
<clipPath id="clip0_1393_6138">
<rect width="319" height="275" fill="white"/>
</clipPath>
</defs>
</svg>
